<?xml version="1.0" encoding="UTF-8" standalone="no"?>
<!DOCTYPE svg PUBLIC "-//W3C//DTD SVG 1.1//EN"
 "http://www.w3.org/Graphics/SVG/1.1/DTD/svg11.dtd">
<!-- Generated by graphviz version 2.47.0 (20210316.0004)
 -->
<!-- Title: dependencies Pages: 1 -->
<svg width="504pt" height="276pt"
 viewBox="0.00 0.00 504.00 276.00" xmlns="http://www.w3.org/2000/svg" xmlns:xlink="http://www.w3.org/1999/xlink">
<g id="graph0" class="graph" transform="scale(1 1) rotate(0) translate(4 272)">
<title>dependencies</title>
<polygon fill="white" stroke="transparent" points="-4,4 -4,-272 500,-272 500,4 -4,4"/>
<text text-anchor="start" x="227.01" y="-42.4" font-family="Times-12" font-weight="bold" font-size="14.00">Legend</text>
<polygon fill="#ffffb3" stroke="transparent" points="14,-10 14,-30 34,-30 34,-10 14,-10"/>
<text text-anchor="start" x="37.63" y="-15.4" font-family="Times-12" font-size="14.00"> &#160;Declarations</text>
<polygon fill="#8dd3c7" stroke="transparent" points="127,-10 127,-30 147,-30 147,-10 127,-10"/>
<text text-anchor="start" x="150.73" y="-15.4" font-family="Times-12" font-size="14.00"> &#160;Module</text>
<polygon fill="#80b1d3" stroke="transparent" points="213,-10 213,-30 233,-30 233,-10 213,-10"/>
<text text-anchor="start" x="236.78" y="-15.4" font-family="Times-12" font-size="14.00"> &#160;Bootstrap</text>
<polygon fill="#fdb462" stroke="transparent" points="310,-10 310,-30 330,-30 330,-10 310,-10"/>
<text text-anchor="start" x="333.67" y="-15.4" font-family="Times-12" font-size="14.00"> &#160;Providers</text>
<polygon fill="#fb8072" stroke="transparent" points="406,-10 406,-30 426,-30 426,-10 406,-10"/>
<text text-anchor="start" x="429.73" y="-15.4" font-family="Times-12" font-size="14.00"> &#160;Exports</text>
<g id="clust1" class="cluster">
<title>cluster_AboutModule</title>
<polygon fill="none" stroke="black" stroke-dasharray="1,5" points="13,-70 13,-260 483,-260 483,-70 13,-70"/>
</g>
<g id="clust2" class="cluster">
<title>cluster_AboutModule_declarations</title>
<polygon fill="none" stroke="black" points="21,-143 21,-195 475,-195 475,-143 21,-143"/>
</g>
<g id="clust3" class="cluster">
<title>cluster_AboutModule_AboutComponent_providers</title>
<polygon fill="none" stroke="black" points="327,-78 327,-130 475,-130 475,-78 327,-78"/>
</g>
<!-- AboutComponent -->
<g id="node1" class="node">
<title>AboutComponent</title>
<polygon fill="#ffffb3" stroke="black" points="467.33,-187 350.67,-187 350.67,-151 467.33,-151 467.33,-187"/>
<text text-anchor="middle" x="409" y="-164.8" font-family="Times,serif" font-size="14.00">AboutComponent</text>
</g>
<!-- AboutModule -->
<g id="node4" class="node">
<title>AboutModule</title>
<polygon fill="#8dd3c7" stroke="black" points="308.05,-252 305.05,-256 284.05,-256 281.05,-252 213.95,-252 213.95,-216 308.05,-216 308.05,-252"/>
<text text-anchor="middle" x="261" y="-229.8" font-family="Times,serif" font-size="14.00">AboutModule</text>
</g>
<!-- AboutComponent&#45;&gt;AboutModule -->
<g id="edge1" class="edge">
<title>AboutComponent&#45;&gt;AboutModule</title>
<path fill="none" stroke="black" d="M409,-187.11C409,-206.34 409,-234 409,-234 409,-234 318.24,-234 318.24,-234"/>
<polygon fill="black" stroke="black" points="318.24,-230.5 308.24,-234 318.24,-237.5 318.24,-230.5"/>
</g>
<!-- CompodocComponent -->
<g id="node2" class="node">
<title>CompodocComponent</title>
<polygon fill="#ffffb3" stroke="black" points="332.27,-187 189.73,-187 189.73,-151 332.27,-151 332.27,-187"/>
<text text-anchor="middle" x="261" y="-164.8" font-family="Times,serif" font-size="14.00">CompodocComponent</text>
</g>
<!-- CompodocComponent&#45;&gt;AboutModule -->
<g id="edge3" class="edge">
<title>CompodocComponent&#45;&gt;AboutModule</title>
<path fill="none" stroke="black" d="M261,-187.11C261,-187.11 261,-205.99 261,-205.99"/>
<polygon fill="black" stroke="black" points="257.5,-205.99 261,-215.99 264.5,-205.99 257.5,-205.99"/>
</g>
<!-- TodoMVCComponent -->
<g id="node3" class="node">
<title>TodoMVCComponent</title>
<polygon fill="#ffffb3" stroke="black" points="171.27,-187 28.73,-187 28.73,-151 171.27,-151 171.27,-187"/>
<text text-anchor="middle" x="100" y="-164.8" font-family="Times,serif" font-size="14.00">TodoMVCComponent</text>
</g>
<!-- TodoMVCComponent&#45;&gt;AboutModule -->
<g id="edge4" class="edge">
<title>TodoMVCComponent&#45;&gt;AboutModule</title>
<path fill="none" stroke="black" d="M100,-187.11C100,-206.34 100,-234 100,-234 100,-234 203.57,-234 203.57,-234"/>
<polygon fill="black" stroke="black" points="203.57,-237.5 213.57,-234 203.57,-230.5 203.57,-237.5"/>
</g>
<!-- EmptyService -->
<g id="node5" class="node">
<title>EmptyService</title>
<ellipse fill="#fdb462" stroke="black" cx="401" cy="-104" rx="65.99" ry="18"/>
<text text-anchor="middle" x="401" y="-99.8" font-family="Times,serif" font-size="14.00">EmptyService</text>
</g>
<!-- EmptyService&#45;&gt;AboutComponent -->
<g id="edge2" class="edge">
<title>EmptyService&#45;&gt;AboutComponent</title>
<path fill="none" stroke="black" d="M408.79,-122.11C408.79,-122.11 408.79,-140.99 408.79,-140.99"/>
<polygon fill="black" stroke="black" points="405.29,-140.99 408.79,-150.99 412.29,-140.99 405.29,-140.99"/>
</g>
</g>
</svg>
