<?xml version="1.0" encoding="UTF-8" standalone="no"?>
<!DOCTYPE svg PUBLIC "-//W3C//DTD SVG 1.1//EN"
 "http://www.w3.org/Graphics/SVG/1.1/DTD/svg11.dtd">
<!-- Generated by graphviz version 2.47.0 (20210316.0004)
 -->
<!-- Title: dependencies Pages: 1 -->
<svg width="515pt" height="276pt"
 viewBox="0.00 0.00 515.00 276.00" xmlns="http://www.w3.org/2000/svg" xmlns:xlink="http://www.w3.org/1999/xlink">
<g id="graph0" class="graph" transform="scale(1 1) rotate(0) translate(4 272)">
<title>dependencies</title>
<polygon fill="white" stroke="transparent" points="-4,4 -4,-272 511,-272 511,4 -4,4"/>
<text text-anchor="start" x="232.51" y="-42.4" font-family="Times-12" font-weight="bold" font-size="14.00">Legend</text>
<polygon fill="#ffffb3" stroke="transparent" points="19.5,-10 19.5,-30 39.5,-30 39.5,-10 19.5,-10"/>
<text text-anchor="start" x="43.13" y="-15.4" font-family="Times-12" font-size="14.00"> &#160;Declarations</text>
<polygon fill="#8dd3c7" stroke="transparent" points="132.5,-10 132.5,-30 152.5,-30 152.5,-10 132.5,-10"/>
<text text-anchor="start" x="156.23" y="-15.4" font-family="Times-12" font-size="14.00"> &#160;Module</text>
<polygon fill="#80b1d3" stroke="transparent" points="218.5,-10 218.5,-30 238.5,-30 238.5,-10 218.5,-10"/>
<text text-anchor="start" x="242.28" y="-15.4" font-family="Times-12" font-size="14.00"> &#160;Bootstrap</text>
<polygon fill="#fdb462" stroke="transparent" points="315.5,-10 315.5,-30 335.5,-30 335.5,-10 315.5,-10"/>
<text text-anchor="start" x="339.17" y="-15.4" font-family="Times-12" font-size="14.00"> &#160;Providers</text>
<polygon fill="#fb8072" stroke="transparent" points="411.5,-10 411.5,-30 431.5,-30 431.5,-10 411.5,-10"/>
<text text-anchor="start" x="435.23" y="-15.4" font-family="Times-12" font-size="14.00"> &#160;Exports</text>
<g id="clust1" class="cluster">
<title>cluster_AboutModule</title>
<polygon fill="none" stroke="black" stroke-dasharray="1,5" points="8,-70 8,-260 499,-260 499,-70 8,-70"/>
</g>
<g id="clust3" class="cluster">
<title>cluster_AboutModule_AboutComponent_providers</title>
<polygon fill="none" stroke="black" points="343,-78 343,-195 491,-195 491,-78 343,-78"/>
</g>
<g id="clust2" class="cluster">
<title>cluster_AboutModule_declarations</title>
<polygon fill="none" stroke="black" points="16,-143 16,-195 335,-195 335,-143 16,-143"/>
</g>
<!-- AboutComponent -->
<g id="node1" class="node">
<title>AboutComponent</title>
<polygon fill="#ffffb3" stroke="black" points="471.33,-187 354.67,-187 354.67,-151 471.33,-151 471.33,-187"/>
<text text-anchor="middle" x="413" y="-164.8" font-family="Times,serif" font-size="14.00">AboutComponent</text>
</g>
<!-- AboutModule -->
<g id="node4" class="node">
<title>AboutModule</title>
<polygon fill="#8dd3c7" stroke="black" points="303.05,-252 300.05,-256 279.05,-256 276.05,-252 208.95,-252 208.95,-216 303.05,-216 303.05,-252"/>
<text text-anchor="middle" x="256" y="-229.8" font-family="Times,serif" font-size="14.00">AboutModule</text>
</g>
<!-- AboutComponent&#45;&gt;AboutModule -->
<g id="edge1" class="edge">
<title>AboutComponent&#45;&gt;AboutModule</title>
<path fill="none" stroke="black" d="M413,-187.11C413,-206.34 413,-234 413,-234 413,-234 313.11,-234 313.11,-234"/>
<polygon fill="black" stroke="black" points="313.11,-230.5 303.11,-234 313.11,-237.5 313.11,-230.5"/>
</g>
<!-- CompodocComponent -->
<g id="node2" class="node">
<title>CompodocComponent</title>
<polygon fill="#ffffb3" stroke="black" points="327.27,-187 184.73,-187 184.73,-151 327.27,-151 327.27,-187"/>
<text text-anchor="middle" x="256" y="-164.8" font-family="Times,serif" font-size="14.00">CompodocComponent</text>
</g>
<!-- CompodocComponent&#45;&gt;AboutModule -->
<g id="edge3" class="edge">
<title>CompodocComponent&#45;&gt;AboutModule</title>
<path fill="none" stroke="black" d="M256,-187.11C256,-187.11 256,-205.99 256,-205.99"/>
<polygon fill="black" stroke="black" points="252.5,-205.99 256,-215.99 259.5,-205.99 252.5,-205.99"/>
</g>
<!-- TodoMVCComponent -->
<g id="node3" class="node">
<title>TodoMVCComponent</title>
<polygon fill="#ffffb3" stroke="black" points="166.27,-187 23.73,-187 23.73,-151 166.27,-151 166.27,-187"/>
<text text-anchor="middle" x="95" y="-164.8" font-family="Times,serif" font-size="14.00">TodoMVCComponent</text>
</g>
<!-- TodoMVCComponent&#45;&gt;AboutModule -->
<g id="edge4" class="edge">
<title>TodoMVCComponent&#45;&gt;AboutModule</title>
<path fill="none" stroke="black" d="M95,-187.11C95,-206.34 95,-234 95,-234 95,-234 198.57,-234 198.57,-234"/>
<polygon fill="black" stroke="black" points="198.57,-237.5 208.57,-234 198.57,-230.5 198.57,-237.5"/>
</g>
<!-- EmptyService -->
<g id="node5" class="node">
<title>EmptyService</title>
<ellipse fill="#fdb462" stroke="black" cx="417" cy="-104" rx="65.99" ry="18"/>
<text text-anchor="middle" x="417" y="-99.8" font-family="Times,serif" font-size="14.00">EmptyService</text>
</g>
<!-- EmptyService&#45;&gt;AboutComponent -->
<g id="edge2" class="edge">
<title>EmptyService&#45;&gt;AboutComponent</title>
<path fill="none" stroke="black" d="M413,-122.11C413,-122.11 413,-140.99 413,-140.99"/>
<polygon fill="black" stroke="black" points="409.5,-140.99 413,-150.99 416.5,-140.99 409.5,-140.99"/>
</g>
</g>
</svg>
