<?xml version="1.0" encoding="UTF-8" standalone="no"?>
<!DOCTYPE svg PUBLIC "-//W3C//DTD SVG 1.1//EN"
 "http://www.w3.org/Graphics/SVG/1.1/DTD/svg11.dtd">
<!-- Generated by graphviz version 2.40.1 (20161225.0304)
 -->
<!-- Title: dependencies Pages: 1 -->
<svg width="504pt" height="276pt"
 viewBox="0.00 0.00 504.00 276.00" xmlns="http://www.w3.org/2000/svg" xmlns:xlink="http://www.w3.org/1999/xlink">
<g id="graph0" class="graph" transform="scale(1 1) rotate(0) translate(4 272)">
<title>dependencies</title>
<polygon fill="#ffffff" stroke="transparent" points="-4,4 -4,-272 500,-272 500,4 -4,4"/>
<text text-anchor="start" x="227.0091" y="-42.4" font-family="sans-serif" font-weight="bold" font-size="14.00" fill="#000000">Legend</text>
<polygon fill="#ffffb3" stroke="transparent" points="14,-10 14,-30 34,-30 34,-10 14,-10"/>
<text text-anchor="start" x="37.629" y="-15.4" font-family="sans-serif" font-size="14.00" fill="#000000"> &#160;Declarations</text>
<polygon fill="#8dd3c7" stroke="transparent" points="127,-10 127,-30 147,-30 147,-10 127,-10"/>
<text text-anchor="start" x="150.7251" y="-15.4" font-family="sans-serif" font-size="14.00" fill="#000000"> &#160;Module</text>
<polygon fill="#80b1d3" stroke="transparent" points="213,-10 213,-30 233,-30 233,-10 213,-10"/>
<text text-anchor="start" x="236.7812" y="-15.4" font-family="sans-serif" font-size="14.00" fill="#000000"> &#160;Bootstrap</text>
<polygon fill="#fdb462" stroke="transparent" points="310,-10 310,-30 330,-30 330,-10 310,-10"/>
<text text-anchor="start" x="333.6732" y="-15.4" font-family="sans-serif" font-size="14.00" fill="#000000"> &#160;Providers</text>
<polygon fill="#fb8072" stroke="transparent" points="406,-10 406,-30 426,-30 426,-10 406,-10"/>
<text text-anchor="start" x="429.7258" y="-15.4" font-family="sans-serif" font-size="14.00" fill="#000000"> &#160;Exports</text>
<g id="clust1" class="cluster">
<title>cluster_AboutModule</title>
<polygon fill="none" stroke="#000000" stroke-dasharray="1,5" points="13,-70 13,-260 483,-260 483,-70 13,-70"/>
</g>
<g id="clust2" class="cluster">
<title>cluster_AboutModule_declarations</title>
<polygon fill="none" stroke="#000000" points="21,-143 21,-195 475,-195 475,-143 21,-143"/>
</g>
<g id="clust3" class="cluster">
<title>cluster_AboutModule_AboutComponent_providers</title>
<polygon fill="none" stroke="#000000" points="327,-78 327,-130 475,-130 475,-78 327,-78"/>
</g>
<!-- AboutComponent -->
<g id="node1" class="node">
<title>AboutComponent</title>
<polygon fill="#ffffb3" stroke="#000000" points="467.3301,-187 350.6699,-187 350.6699,-151 467.3301,-151 467.3301,-187"/>
<text text-anchor="middle" x="409" y="-164.8" font-family="Times,serif" font-size="14.00" fill="#000000">AboutComponent</text>
</g>
<!-- AboutModule -->
<g id="node4" class="node">
<title>AboutModule</title>
<polygon fill="#8dd3c7" stroke="#000000" points="308.0481,-252 305.0481,-256 284.0481,-256 281.0481,-252 213.9519,-252 213.9519,-216 308.0481,-216 308.0481,-252"/>
<text text-anchor="middle" x="261" y="-229.8" font-family="Times,serif" font-size="14.00" fill="#000000">AboutModule</text>
</g>
<!-- AboutComponent&#45;&gt;AboutModule -->
<g id="edge1" class="edge">
<title>AboutComponent&#45;&gt;AboutModule</title>
<path fill="none" stroke="#000000" d="M409,-187.1061C409,-206.3391 409,-234 409,-234 409,-234 318.235,-234 318.235,-234"/>
<polygon fill="#000000" stroke="#000000" points="318.2351,-230.5001 308.235,-234 318.235,-237.5001 318.2351,-230.5001"/>
</g>
<!-- CompodocComponent -->
<g id="node2" class="node">
<title>CompodocComponent</title>
<polygon fill="#ffffb3" stroke="#000000" points="332.2744,-187 189.7256,-187 189.7256,-151 332.2744,-151 332.2744,-187"/>
<text text-anchor="middle" x="261" y="-164.8" font-family="Times,serif" font-size="14.00" fill="#000000">CompodocComponent</text>
</g>
<!-- CompodocComponent&#45;&gt;AboutModule -->
<g id="edge3" class="edge">
<title>CompodocComponent&#45;&gt;AboutModule</title>
<path fill="none" stroke="#000000" d="M261,-187.1061C261,-187.1061 261,-205.991 261,-205.991"/>
<polygon fill="#000000" stroke="#000000" points="257.5001,-205.9909 261,-215.991 264.5001,-205.991 257.5001,-205.9909"/>
</g>
<!-- TodoMVCComponent -->
<g id="node3" class="node">
<title>TodoMVCComponent</title>
<polygon fill="#ffffb3" stroke="#000000" points="171.273,-187 28.727,-187 28.727,-151 171.273,-151 171.273,-187"/>
<text text-anchor="middle" x="100" y="-164.8" font-family="Times,serif" font-size="14.00" fill="#000000">TodoMVCComponent</text>
</g>
<!-- TodoMVCComponent&#45;&gt;AboutModule -->
<g id="edge4" class="edge">
<title>TodoMVCComponent&#45;&gt;AboutModule</title>
<path fill="none" stroke="#000000" d="M100,-187.1061C100,-206.3391 100,-234 100,-234 100,-234 203.5655,-234 203.5655,-234"/>
<polygon fill="#000000" stroke="#000000" points="203.5655,-237.5001 213.5655,-234 203.5654,-230.5001 203.5655,-237.5001"/>
</g>
<!-- EmptyService -->
<g id="node5" class="node">
<title>EmptyService</title>
<ellipse fill="#fdb462" stroke="#000000" cx="401" cy="-104" rx="65.989" ry="18"/>
<text text-anchor="middle" x="401" y="-99.8" font-family="Times,serif" font-size="14.00" fill="#000000">EmptyService</text>
</g>
<!-- EmptyService&#45;&gt;AboutComponent -->
<g id="edge2" class="edge">
<title>EmptyService&#45;&gt;AboutComponent</title>
<path fill="none" stroke="#000000" d="M408.7896,-122.1061C408.7896,-122.1061 408.7896,-140.991 408.7896,-140.991"/>
<polygon fill="#000000" stroke="#000000" points="405.2897,-140.9909 408.7896,-150.991 412.2897,-140.991 405.2897,-140.9909"/>
</g>
</g>
</svg>
