<?xml version="1.0" encoding="UTF-8" standalone="no"?>
<!DOCTYPE svg PUBLIC "-//W3C//DTD SVG 1.1//EN"
 "http://www.w3.org/Graphics/SVG/1.1/DTD/svg11.dtd">
<!-- Generated by graphviz version 2.47.0 (20210316.0004)
 -->
<!-- Title: dependencies Pages: 1 -->
<svg width="666pt" height="284pt"
 viewBox="0.00 0.00 666.00 284.00" xmlns="http://www.w3.org/2000/svg" xmlns:xlink="http://www.w3.org/1999/xlink">
<g id="graph0" class="graph" transform="scale(1 1) rotate(0) translate(4 280)">
<title>dependencies</title>
<polygon fill="white" stroke="transparent" points="-4,4 -4,-280 662,-280 662,4 -4,4"/>
<text text-anchor="start" x="308.01" y="-42.4" font-family="Times-12" font-weight="bold" font-size="14.00">Legend</text>
<polygon fill="#ffffb3" stroke="transparent" points="95,-10 95,-30 115,-30 115,-10 95,-10"/>
<text text-anchor="start" x="118.63" y="-15.4" font-family="Times-12" font-size="14.00"> &#160;Declarations</text>
<polygon fill="#8dd3c7" stroke="transparent" points="208,-10 208,-30 228,-30 228,-10 208,-10"/>
<text text-anchor="start" x="231.73" y="-15.4" font-family="Times-12" font-size="14.00"> &#160;Module</text>
<polygon fill="#80b1d3" stroke="transparent" points="294,-10 294,-30 314,-30 314,-10 294,-10"/>
<text text-anchor="start" x="317.78" y="-15.4" font-family="Times-12" font-size="14.00"> &#160;Bootstrap</text>
<polygon fill="#fdb462" stroke="transparent" points="391,-10 391,-30 411,-30 411,-10 391,-10"/>
<text text-anchor="start" x="414.67" y="-15.4" font-family="Times-12" font-size="14.00"> &#160;Providers</text>
<polygon fill="#fb8072" stroke="transparent" points="487,-10 487,-30 507,-30 507,-10 487,-10"/>
<text text-anchor="start" x="510.73" y="-15.4" font-family="Times-12" font-size="14.00"> &#160;Exports</text>
<g id="clust1" class="cluster">
<title>cluster_HomeModule</title>
<polygon fill="none" stroke="black" stroke-dasharray="1,5" points="8,-70 8,-268 650,-268 650,-70 8,-70"/>
</g>
<g id="clust5" class="cluster">
<title>cluster_HomeModule_exports</title>
<polygon fill="none" stroke="black" points="265,-208 265,-260 401,-260 401,-208 265,-208"/>
</g>
<g id="clust4" class="cluster">
<title>cluster_HomeModule_imports</title>
<polygon fill="none" stroke="black" points="156,-78 156,-130 642,-130 642,-78 156,-78"/>
</g>
<g id="clust2" class="cluster">
<title>cluster_HomeModule_declarations</title>
<polygon fill="none" stroke="black" points="16,-78 16,-130 148,-130 148,-78 16,-78"/>
</g>
<!-- HomeComponent -->
<g id="node1" class="node">
<title>HomeComponent</title>
<polygon fill="#ffffb3" stroke="black" points="139.55,-122 24.45,-122 24.45,-86 139.55,-86 139.55,-122"/>
<text text-anchor="middle" x="82" y="-99.8" font-family="Times,serif" font-size="14.00">HomeComponent</text>
</g>
<!-- HomeModule -->
<g id="node2" class="node">
<title>HomeModule</title>
<polygon fill="#8dd3c7" stroke="black" points="379.76,-187 376.76,-191 355.76,-191 352.76,-187 286.24,-187 286.24,-151 379.76,-151 379.76,-187"/>
<text text-anchor="middle" x="333" y="-164.8" font-family="Times,serif" font-size="14.00">HomeModule</text>
</g>
<!-- HomeComponent&#45;&gt;HomeModule -->
<g id="edge1" class="edge">
<title>HomeComponent&#45;&gt;HomeModule</title>
<path fill="none" stroke="black" d="M82,-122.28C82,-143.32 82,-175 82,-175 82,-175 276.08,-175 276.08,-175"/>
<polygon fill="black" stroke="black" points="276.08,-178.5 286.08,-175 276.08,-171.5 276.08,-178.5"/>
</g>
<!-- HomeComponent  -->
<g id="node7" class="node">
<title>HomeComponent </title>
<polygon fill="#fb8072" stroke="black" points="392.54,-252 273.46,-252 273.46,-216 392.54,-216 392.54,-252"/>
<text text-anchor="middle" x="333" y="-229.8" font-family="Times,serif" font-size="14.00">HomeComponent </text>
</g>
<!-- HomeModule&#45;&gt;HomeComponent  -->
<g id="edge6" class="edge">
<title>HomeModule&#45;&gt;HomeComponent </title>
<path fill="none" stroke="black" stroke-dasharray="5,2" d="M333,-187.11C333,-187.11 333,-205.99 333,-205.99"/>
<polygon fill="black" stroke="black" points="329.5,-205.99 333,-215.99 336.5,-205.99 329.5,-205.99"/>
</g>
<!-- FooterModule -->
<g id="node3" class="node">
<title>FooterModule</title>
<polygon fill="#8dd3c7" stroke="black" points="634.1,-122 631.1,-126 610.1,-126 607.1,-122 537.9,-122 537.9,-86 634.1,-86 634.1,-122"/>
<text text-anchor="middle" x="586" y="-99.8" font-family="Times,serif" font-size="14.00">FooterModule</text>
</g>
<!-- FooterModule&#45;&gt;HomeModule -->
<g id="edge2" class="edge">
<title>FooterModule&#45;&gt;HomeModule</title>
<path fill="none" stroke="black" d="M586,-122.28C586,-143.32 586,-175 586,-175 586,-175 389.99,-175 389.99,-175"/>
<polygon fill="black" stroke="black" points="389.99,-171.5 379.99,-175 389.99,-178.5 389.99,-171.5"/>
</g>
<!-- HeaderModule -->
<g id="node4" class="node">
<title>HeaderModule</title>
<polygon fill="#8dd3c7" stroke="black" points="519.96,-122 516.96,-126 495.96,-126 492.96,-122 420.04,-122 420.04,-86 519.96,-86 519.96,-122"/>
<text text-anchor="middle" x="470" y="-99.8" font-family="Times,serif" font-size="14.00">HeaderModule</text>
</g>
<!-- HeaderModule&#45;&gt;HomeModule -->
<g id="edge3" class="edge">
<title>HeaderModule&#45;&gt;HomeModule</title>
<path fill="none" stroke="black" d="M470,-122.02C470,-139.37 470,-163 470,-163 470,-163 389.76,-163 389.76,-163"/>
<polygon fill="black" stroke="black" points="389.76,-159.5 379.76,-163 389.76,-166.5 389.76,-159.5"/>
</g>
<!-- HomeRoutingModule -->
<g id="node5" class="node">
<title>HomeRoutingModule</title>
<polygon fill="#8dd3c7" stroke="black" points="402.38,-122 399.38,-126 378.38,-126 375.38,-122 263.62,-122 263.62,-86 402.38,-86 402.38,-122"/>
<text text-anchor="middle" x="333" y="-99.8" font-family="Times,serif" font-size="14.00">HomeRoutingModule</text>
</g>
<!-- HomeRoutingModule&#45;&gt;HomeModule -->
<g id="edge4" class="edge">
<title>HomeRoutingModule&#45;&gt;HomeModule</title>
<path fill="none" stroke="black" d="M333,-122.11C333,-122.11 333,-140.99 333,-140.99"/>
<polygon fill="black" stroke="black" points="329.5,-140.99 333,-150.99 336.5,-140.99 329.5,-140.99"/>
</g>
<!-- ListModule -->
<g id="node6" class="node">
<title>ListModule</title>
<polygon fill="#8dd3c7" stroke="black" points="245.83,-122 242.83,-126 221.83,-126 218.83,-122 164.17,-122 164.17,-86 245.83,-86 245.83,-122"/>
<text text-anchor="middle" x="205" y="-99.8" font-family="Times,serif" font-size="14.00">ListModule</text>
</g>
<!-- ListModule&#45;&gt;HomeModule -->
<g id="edge5" class="edge">
<title>ListModule&#45;&gt;HomeModule</title>
<path fill="none" stroke="black" d="M205,-122.02C205,-139.37 205,-163 205,-163 205,-163 276.06,-163 276.06,-163"/>
<polygon fill="black" stroke="black" points="276.06,-166.5 286.06,-163 276.06,-159.5 276.06,-166.5"/>
</g>
</g>
</svg>
