<?xml version="1.0" encoding="UTF-8" standalone="no"?>
<!DOCTYPE svg PUBLIC "-//W3C//DTD SVG 1.1//EN"
 "http://www.w3.org/Graphics/SVG/1.1/DTD/svg11.dtd">
<!-- Generated by graphviz version 2.40.1 (20161225.0304)
 -->
<!-- Title: dependencies Pages: 1 -->
<svg width="666pt" height="284pt"
 viewBox="0.00 0.00 666.00 284.00" xmlns="http://www.w3.org/2000/svg" xmlns:xlink="http://www.w3.org/1999/xlink">
<g id="graph0" class="graph" transform="scale(1 1) rotate(0) translate(4 280)">
<title>dependencies</title>
<polygon fill="#ffffff" stroke="transparent" points="-4,4 -4,-280 662,-280 662,4 -4,4"/>
<text text-anchor="start" x="308.0091" y="-42.4" font-family="sans-serif" font-weight="bold" font-size="14.00" fill="#000000">Legend</text>
<polygon fill="#ffffb3" stroke="transparent" points="95,-10 95,-30 115,-30 115,-10 95,-10"/>
<text text-anchor="start" x="118.629" y="-15.4" font-family="sans-serif" font-size="14.00" fill="#000000"> &#160;Declarations</text>
<polygon fill="#8dd3c7" stroke="transparent" points="208,-10 208,-30 228,-30 228,-10 208,-10"/>
<text text-anchor="start" x="231.7251" y="-15.4" font-family="sans-serif" font-size="14.00" fill="#000000"> &#160;Module</text>
<polygon fill="#80b1d3" stroke="transparent" points="294,-10 294,-30 314,-30 314,-10 294,-10"/>
<text text-anchor="start" x="317.7812" y="-15.4" font-family="sans-serif" font-size="14.00" fill="#000000"> &#160;Bootstrap</text>
<polygon fill="#fdb462" stroke="transparent" points="391,-10 391,-30 411,-30 411,-10 391,-10"/>
<text text-anchor="start" x="414.6732" y="-15.4" font-family="sans-serif" font-size="14.00" fill="#000000"> &#160;Providers</text>
<polygon fill="#fb8072" stroke="transparent" points="487,-10 487,-30 507,-30 507,-10 487,-10"/>
<text text-anchor="start" x="510.7258" y="-15.4" font-family="sans-serif" font-size="14.00" fill="#000000"> &#160;Exports</text>
<g id="clust1" class="cluster">
<title>cluster_HomeModule</title>
<polygon fill="none" stroke="#000000" stroke-dasharray="1,5" points="8,-70 8,-268 650,-268 650,-70 8,-70"/>
</g>
<g id="clust2" class="cluster">
<title>cluster_HomeModule_declarations</title>
<polygon fill="none" stroke="#000000" points="510,-78 510,-130 642,-130 642,-78 510,-78"/>
</g>
<g id="clust4" class="cluster">
<title>cluster_HomeModule_imports</title>
<polygon fill="none" stroke="#000000" points="16,-78 16,-130 502,-130 502,-78 16,-78"/>
</g>
<g id="clust5" class="cluster">
<title>cluster_HomeModule_exports</title>
<polygon fill="none" stroke="#000000" points="262,-208 262,-260 398,-260 398,-208 262,-208"/>
</g>
<!-- HomeComponent -->
<g id="node1" class="node">
<title>HomeComponent</title>
<polygon fill="#ffffb3" stroke="#000000" points="633.5451,-122 518.4549,-122 518.4549,-86 633.5451,-86 633.5451,-122"/>
<text text-anchor="middle" x="576" y="-99.8" font-family="Times,serif" font-size="14.00" fill="#000000">HomeComponent</text>
</g>
<!-- HomeModule -->
<g id="node2" class="node">
<title>HomeModule</title>
<polygon fill="#8dd3c7" stroke="#000000" points="376.7619,-187 373.7619,-191 352.7619,-191 349.7619,-187 283.2381,-187 283.2381,-151 376.7619,-151 376.7619,-187"/>
<text text-anchor="middle" x="330" y="-164.8" font-family="Times,serif" font-size="14.00" fill="#000000">HomeModule</text>
</g>
<!-- HomeComponent&#45;&gt;HomeModule -->
<g id="edge1" class="edge">
<title>HomeComponent&#45;&gt;HomeModule</title>
<path fill="none" stroke="#000000" d="M576,-122.2843C576,-143.3211 576,-175 576,-175 576,-175 386.8498,-175 386.8498,-175"/>
<polygon fill="#000000" stroke="#000000" points="386.8498,-171.5001 376.8498,-175 386.8497,-178.5001 386.8498,-171.5001"/>
</g>
<!-- HomeComponent  -->
<g id="node7" class="node">
<title>HomeComponent </title>
<polygon fill="#fb8072" stroke="#000000" points="389.5442,-252 270.4558,-252 270.4558,-216 389.5442,-216 389.5442,-252"/>
<text text-anchor="middle" x="330" y="-229.8" font-family="Times,serif" font-size="14.00" fill="#000000">HomeComponent </text>
</g>
<!-- HomeModule&#45;&gt;HomeComponent  -->
<g id="edge6" class="edge">
<title>HomeModule&#45;&gt;HomeComponent </title>
<path fill="none" stroke="#000000" stroke-dasharray="5,2" d="M330,-187.1061C330,-187.1061 330,-205.991 330,-205.991"/>
<polygon fill="#000000" stroke="#000000" points="326.5001,-205.9909 330,-215.991 333.5001,-205.991 326.5001,-205.9909"/>
</g>
<!-- FooterModule -->
<g id="node3" class="node">
<title>FooterModule</title>
<polygon fill="#8dd3c7" stroke="#000000" points="494.0983,-122 491.0983,-126 470.0983,-126 467.0983,-122 397.9017,-122 397.9017,-86 494.0983,-86 494.0983,-122"/>
<text text-anchor="middle" x="446" y="-99.8" font-family="Times,serif" font-size="14.00" fill="#000000">FooterModule</text>
</g>
<!-- FooterModule&#45;&gt;HomeModule -->
<g id="edge2" class="edge">
<title>FooterModule&#45;&gt;HomeModule</title>
<path fill="none" stroke="#000000" d="M446,-122.0225C446,-139.3734 446,-163 446,-163 446,-163 386.8473,-163 386.8473,-163"/>
<polygon fill="#000000" stroke="#000000" points="386.8473,-159.5001 376.8473,-163 386.8472,-166.5001 386.8473,-159.5001"/>
</g>
<!-- HeaderModule -->
<g id="node4" class="node">
<title>HeaderModule</title>
<polygon fill="#8dd3c7" stroke="#000000" points="379.9608,-122 376.9608,-126 355.9608,-126 352.9608,-122 280.0392,-122 280.0392,-86 379.9608,-86 379.9608,-122"/>
<text text-anchor="middle" x="330" y="-99.8" font-family="Times,serif" font-size="14.00" fill="#000000">HeaderModule</text>
</g>
<!-- HeaderModule&#45;&gt;HomeModule -->
<g id="edge3" class="edge">
<title>HeaderModule&#45;&gt;HomeModule</title>
<path fill="none" stroke="#000000" d="M330,-122.1061C330,-122.1061 330,-140.991 330,-140.991"/>
<polygon fill="#000000" stroke="#000000" points="326.5001,-140.9909 330,-150.991 333.5001,-140.991 326.5001,-140.9909"/>
</g>
<!-- HomeRoutingModule -->
<g id="node5" class="node">
<title>HomeRoutingModule</title>
<polygon fill="#8dd3c7" stroke="#000000" points="262.3795,-122 259.3795,-126 238.3795,-126 235.3795,-122 123.6205,-122 123.6205,-86 262.3795,-86 262.3795,-122"/>
<text text-anchor="middle" x="193" y="-99.8" font-family="Times,serif" font-size="14.00" fill="#000000">HomeRoutingModule</text>
</g>
<!-- HomeRoutingModule&#45;&gt;HomeModule -->
<g id="edge4" class="edge">
<title>HomeRoutingModule&#45;&gt;HomeModule</title>
<path fill="none" stroke="#000000" d="M193,-122.0225C193,-139.3734 193,-163 193,-163 193,-163 273.2355,-163 273.2355,-163"/>
<polygon fill="#000000" stroke="#000000" points="273.2356,-166.5001 283.2355,-163 273.2355,-159.5001 273.2356,-166.5001"/>
</g>
<!-- ListModule -->
<g id="node6" class="node">
<title>ListModule</title>
<polygon fill="#8dd3c7" stroke="#000000" points="105.8289,-122 102.8289,-126 81.8289,-126 78.8289,-122 24.1711,-122 24.1711,-86 105.8289,-86 105.8289,-122"/>
<text text-anchor="middle" x="65" y="-99.8" font-family="Times,serif" font-size="14.00" fill="#000000">ListModule</text>
</g>
<!-- ListModule&#45;&gt;HomeModule -->
<g id="edge5" class="edge">
<title>ListModule&#45;&gt;HomeModule</title>
<path fill="none" stroke="#000000" d="M65,-122.2843C65,-143.3211 65,-175 65,-175 65,-175 273.2333,-175 273.2333,-175"/>
<polygon fill="#000000" stroke="#000000" points="273.2334,-178.5001 283.2333,-175 273.2333,-171.5001 273.2334,-178.5001"/>
</g>
</g>
</svg>
