<?xml version="1.0" encoding="UTF-8" standalone="no"?>
<!DOCTYPE svg PUBLIC "-//W3C//DTD SVG 1.1//EN"
 "http://www.w3.org/Graphics/SVG/1.1/DTD/svg11.dtd">
<!-- Generated by graphviz version 2.47.3 (20210619.1520)
 -->
<!-- Title: dependencies Pages: 1 -->
<svg width="666pt" height="247pt"
 viewBox="0.00 0.00 666.00 246.80" xmlns="http://www.w3.org/2000/svg" xmlns:xlink="http://www.w3.org/1999/xlink">
<g id="graph0" class="graph" transform="scale(1 1) rotate(0) translate(4 242.8)">
<title>dependencies</title>
<polygon fill="white" stroke="transparent" points="-4,4 -4,-242.8 662,-242.8 662,4 -4,4"/>
<text text-anchor="middle" x="329" y="-8.2" font-family="sans-serif" font-size="14.00">dependencies</text>
<g id="clust1" class="cluster">
<title>cluster_HomeModule</title>
<polygon fill="none" stroke="black" stroke-dasharray="1,5" points="8,-32.8 8,-230.8 650,-230.8 650,-32.8 8,-32.8"/>
</g>
<g id="clust5" class="cluster">
<title>cluster_HomeModule_exports</title>
<polygon fill="none" stroke="black" points="265,-170.8 265,-222.8 401,-222.8 401,-170.8 265,-170.8"/>
</g>
<g id="clust4" class="cluster">
<title>cluster_HomeModule_imports</title>
<polygon fill="none" stroke="black" points="156,-40.8 156,-92.8 642,-92.8 642,-40.8 156,-40.8"/>
</g>
<g id="clust2" class="cluster">
<title>cluster_HomeModule_declarations</title>
<polygon fill="none" stroke="black" points="16,-40.8 16,-92.8 148,-92.8 148,-40.8 16,-40.8"/>
</g>
<!-- HomeComponent -->
<g id="node1" class="node">
<title>HomeComponent</title>
<polygon fill="#ffffb3" stroke="black" points="139.55,-84.8 24.45,-84.8 24.45,-48.8 139.55,-48.8 139.55,-84.8"/>
<text text-anchor="middle" x="82" y="-62.6" font-family="Times,serif" font-size="14.00">HomeComponent</text>
</g>
<!-- HomeModule -->
<g id="node2" class="node">
<title>HomeModule</title>
<polygon fill="#8dd3c7" stroke="black" points="379.76,-149.8 376.76,-153.8 355.76,-153.8 352.76,-149.8 286.24,-149.8 286.24,-113.8 379.76,-113.8 379.76,-149.8"/>
<text text-anchor="middle" x="333" y="-127.6" font-family="Times,serif" font-size="14.00">HomeModule</text>
</g>
<!-- HomeComponent&#45;&gt;HomeModule -->
<g id="edge1" class="edge">
<title>HomeComponent&#45;&gt;HomeModule</title>
<path fill="none" stroke="black" d="M82,-85.08C82,-106.12 82,-137.8 82,-137.8 82,-137.8 276.08,-137.8 276.08,-137.8"/>
<polygon fill="black" stroke="black" points="276.08,-141.3 286.08,-137.8 276.08,-134.3 276.08,-141.3"/>
</g>
<!-- HomeComponent  -->
<g id="node7" class="node">
<title>HomeComponent </title>
<polygon fill="#fb8072" stroke="black" points="392.54,-214.8 273.46,-214.8 273.46,-178.8 392.54,-178.8 392.54,-214.8"/>
<text text-anchor="middle" x="333" y="-192.6" font-family="Times,serif" font-size="14.00">HomeComponent </text>
</g>
<!-- HomeModule&#45;&gt;HomeComponent  -->
<g id="edge6" class="edge">
<title>HomeModule&#45;&gt;HomeComponent </title>
<path fill="none" stroke="black" stroke-dasharray="5,2" d="M333,-149.91C333,-149.91 333,-168.79 333,-168.79"/>
<polygon fill="black" stroke="black" points="329.5,-168.79 333,-178.79 336.5,-168.79 329.5,-168.79"/>
</g>
<!-- FooterModule -->
<g id="node3" class="node">
<title>FooterModule</title>
<polygon fill="#8dd3c7" stroke="black" points="634.1,-84.8 631.1,-88.8 610.1,-88.8 607.1,-84.8 537.9,-84.8 537.9,-48.8 634.1,-48.8 634.1,-84.8"/>
<text text-anchor="middle" x="586" y="-62.6" font-family="Times,serif" font-size="14.00">FooterModule</text>
</g>
<!-- FooterModule&#45;&gt;HomeModule -->
<g id="edge2" class="edge">
<title>FooterModule&#45;&gt;HomeModule</title>
<path fill="none" stroke="black" d="M586,-85.08C586,-106.12 586,-137.8 586,-137.8 586,-137.8 389.99,-137.8 389.99,-137.8"/>
<polygon fill="black" stroke="black" points="389.99,-134.3 379.99,-137.8 389.99,-141.3 389.99,-134.3"/>
</g>
<!-- HeaderModule -->
<g id="node4" class="node">
<title>HeaderModule</title>
<polygon fill="#8dd3c7" stroke="black" points="519.96,-84.8 516.96,-88.8 495.96,-88.8 492.96,-84.8 420.04,-84.8 420.04,-48.8 519.96,-48.8 519.96,-84.8"/>
<text text-anchor="middle" x="470" y="-62.6" font-family="Times,serif" font-size="14.00">HeaderModule</text>
</g>
<!-- HeaderModule&#45;&gt;HomeModule -->
<g id="edge3" class="edge">
<title>HeaderModule&#45;&gt;HomeModule</title>
<path fill="none" stroke="black" d="M470,-84.82C470,-102.17 470,-125.8 470,-125.8 470,-125.8 389.76,-125.8 389.76,-125.8"/>
<polygon fill="black" stroke="black" points="389.76,-122.3 379.76,-125.8 389.76,-129.3 389.76,-122.3"/>
</g>
<!-- HomeRoutingModule -->
<g id="node5" class="node">
<title>HomeRoutingModule</title>
<polygon fill="#8dd3c7" stroke="black" points="402.38,-84.8 399.38,-88.8 378.38,-88.8 375.38,-84.8 263.62,-84.8 263.62,-48.8 402.38,-48.8 402.38,-84.8"/>
<text text-anchor="middle" x="333" y="-62.6" font-family="Times,serif" font-size="14.00">HomeRoutingModule</text>
</g>
<!-- HomeRoutingModule&#45;&gt;HomeModule -->
<g id="edge4" class="edge">
<title>HomeRoutingModule&#45;&gt;HomeModule</title>
<path fill="none" stroke="black" d="M333,-84.91C333,-84.91 333,-103.79 333,-103.79"/>
<polygon fill="black" stroke="black" points="329.5,-103.79 333,-113.79 336.5,-103.79 329.5,-103.79"/>
</g>
<!-- ListModule -->
<g id="node6" class="node">
<title>ListModule</title>
<polygon fill="#8dd3c7" stroke="black" points="245.83,-84.8 242.83,-88.8 221.83,-88.8 218.83,-84.8 164.17,-84.8 164.17,-48.8 245.83,-48.8 245.83,-84.8"/>
<text text-anchor="middle" x="205" y="-62.6" font-family="Times,serif" font-size="14.00">ListModule</text>
</g>
<!-- ListModule&#45;&gt;HomeModule -->
<g id="edge5" class="edge">
<title>ListModule&#45;&gt;HomeModule</title>
<path fill="none" stroke="black" d="M205,-84.82C205,-102.17 205,-125.8 205,-125.8 205,-125.8 276.06,-125.8 276.06,-125.8"/>
<polygon fill="black" stroke="black" points="276.06,-129.3 286.06,-125.8 276.06,-122.3 276.06,-129.3"/>
</g>
</g>
</svg>
