<?xml version="1.0" encoding="UTF-8" standalone="no"?>
<!DOCTYPE svg PUBLIC "-//W3C//DTD SVG 1.1//EN"
 "http://www.w3.org/Graphics/SVG/1.1/DTD/svg11.dtd">
<!-- Generated by graphviz version 2.47.3 (20210619.1520)
 -->
<!-- Title: dependencies Pages: 1 -->
<svg width="722pt" height="247pt"
 viewBox="0.00 0.00 722.00 246.80" xmlns="http://www.w3.org/2000/svg" xmlns:xlink="http://www.w3.org/1999/xlink">
<g id="graph0" class="graph" transform="scale(1 1) rotate(0) translate(4 242.8)">
<title>dependencies</title>
<polygon fill="white" stroke="transparent" points="-4,4 -4,-242.8 718,-242.8 718,4 -4,4"/>
<text text-anchor="middle" x="357" y="-8.2" font-family="sans-serif" font-size="14.00">dependencies</text>
<g id="clust1" class="cluster">
<title>cluster_AppModule</title>
<polygon fill="none" stroke="black" stroke-dasharray="1,5" points="8,-32.8 8,-230.8 706,-230.8 706,-32.8 8,-32.8"/>
</g>
<g id="clust7" class="cluster">
<title>cluster_AppModule_providers</title>
<polygon fill="none" stroke="black" points="410,-40.8 410,-92.8 698,-92.8 698,-40.8 410,-40.8"/>
</g>
<g id="clust2" class="cluster">
<title>cluster_AppModule_declarations</title>
<polygon fill="none" stroke="black" points="280,-40.8 280,-92.8 402,-92.8 402,-40.8 280,-40.8"/>
</g>
<g id="clust4" class="cluster">
<title>cluster_AppModule_imports</title>
<polygon fill="none" stroke="black" points="16,-40.8 16,-92.8 272,-92.8 272,-40.8 16,-40.8"/>
</g>
<g id="clust6" class="cluster">
<title>cluster_AppModule_bootstrap</title>
<polygon fill="none" stroke="black" points="279,-170.8 279,-222.8 403,-222.8 403,-170.8 279,-170.8"/>
</g>
<!-- AppComponent -->
<g id="node1" class="node">
<title>AppComponent</title>
<polygon fill="#ffffb3" stroke="black" points="393.94,-84.8 288.06,-84.8 288.06,-48.8 393.94,-48.8 393.94,-84.8"/>
<text text-anchor="middle" x="341" y="-62.6" font-family="Times,serif" font-size="14.00">AppComponent</text>
</g>
<!-- AppModule -->
<g id="node2" class="node">
<title>AppModule</title>
<polygon fill="#8dd3c7" stroke="black" points="382.66,-149.8 379.66,-153.8 358.66,-153.8 355.66,-149.8 299.34,-149.8 299.34,-113.8 382.66,-113.8 382.66,-149.8"/>
<text text-anchor="middle" x="341" y="-127.6" font-family="Times,serif" font-size="14.00">AppModule</text>
</g>
<!-- AppComponent&#45;&gt;AppModule -->
<g id="edge1" class="edge">
<title>AppComponent&#45;&gt;AppModule</title>
<path fill="none" stroke="black" d="M341,-84.91C341,-84.91 341,-103.79 341,-103.79"/>
<polygon fill="black" stroke="black" points="337.5,-103.79 341,-113.79 344.5,-103.79 337.5,-103.79"/>
</g>
<!-- AppComponent  -->
<g id="node5" class="node">
<title>AppComponent </title>
<polygon fill="#80b1d3" stroke="black" points="395.44,-214.8 286.56,-214.8 286.56,-178.8 395.44,-178.8 395.44,-214.8"/>
<text text-anchor="middle" x="341" y="-192.6" font-family="Times,serif" font-size="14.00">AppComponent </text>
</g>
<!-- AppModule&#45;&gt;AppComponent  -->
<g id="edge4" class="edge">
<title>AppModule&#45;&gt;AppComponent </title>
<path fill="none" stroke="black" stroke-dasharray="1,5" d="M341,-149.91C341,-149.91 341,-168.79 341,-168.79"/>
<polygon fill="black" stroke="black" points="337.5,-168.79 341,-178.79 344.5,-168.79 337.5,-168.79"/>
</g>
<!-- AppRoutingModule -->
<g id="node3" class="node">
<title>AppRoutingModule</title>
<polygon fill="#8dd3c7" stroke="black" points="264.27,-84.8 261.27,-88.8 240.27,-88.8 237.27,-84.8 135.73,-84.8 135.73,-48.8 264.27,-48.8 264.27,-84.8"/>
<text text-anchor="middle" x="200" y="-62.6" font-family="Times,serif" font-size="14.00">AppRoutingModule</text>
</g>
<!-- AppRoutingModule&#45;&gt;AppModule -->
<g id="edge2" class="edge">
<title>AppRoutingModule&#45;&gt;AppModule</title>
<path fill="none" stroke="black" d="M200,-84.82C200,-102.17 200,-125.8 200,-125.8 200,-125.8 289.08,-125.8 289.08,-125.8"/>
<polygon fill="black" stroke="black" points="289.08,-129.3 299.08,-125.8 289.08,-122.3 289.08,-129.3"/>
</g>
<!-- HomeModule -->
<g id="node4" class="node">
<title>HomeModule</title>
<polygon fill="#8dd3c7" stroke="black" points="117.76,-84.8 114.76,-88.8 93.76,-88.8 90.76,-84.8 24.24,-84.8 24.24,-48.8 117.76,-48.8 117.76,-84.8"/>
<text text-anchor="middle" x="71" y="-62.6" font-family="Times,serif" font-size="14.00">HomeModule</text>
</g>
<!-- HomeModule&#45;&gt;AppModule -->
<g id="edge3" class="edge">
<title>HomeModule&#45;&gt;AppModule</title>
<path fill="none" stroke="black" d="M71,-85.08C71,-106.12 71,-137.8 71,-137.8 71,-137.8 289.11,-137.8 289.11,-137.8"/>
<polygon fill="black" stroke="black" points="289.11,-141.3 299.11,-137.8 289.11,-134.3 289.11,-141.3"/>
</g>
<!-- NoopInterceptor -->
<g id="node6" class="node">
<title>NoopInterceptor</title>
<ellipse fill="#fdb462" stroke="black" cx="615" cy="-66.8" rx="74.7" ry="18"/>
<text text-anchor="middle" x="615" y="-62.6" font-family="Times,serif" font-size="14.00">NoopInterceptor</text>
</g>
<!-- NoopInterceptor&#45;&gt;AppModule -->
<g id="edge5" class="edge">
<title>NoopInterceptor&#45;&gt;AppModule</title>
<path fill="none" stroke="black" d="M615,-85.08C615,-106.12 615,-137.8 615,-137.8 615,-137.8 392.91,-137.8 392.91,-137.8"/>
<polygon fill="black" stroke="black" points="392.91,-134.3 382.91,-137.8 392.91,-141.3 392.91,-134.3"/>
</g>
<!-- TodoStore -->
<g id="node7" class="node">
<title>TodoStore</title>
<ellipse fill="#fdb462" stroke="black" cx="470" cy="-66.8" rx="51.61" ry="18"/>
<text text-anchor="middle" x="470" y="-62.6" font-family="Times,serif" font-size="14.00">TodoStore</text>
</g>
<!-- TodoStore&#45;&gt;AppModule -->
<g id="edge6" class="edge">
<title>TodoStore&#45;&gt;AppModule</title>
<path fill="none" stroke="black" d="M470,-84.82C470,-102.17 470,-125.8 470,-125.8 470,-125.8 392.88,-125.8 392.88,-125.8"/>
<polygon fill="black" stroke="black" points="392.88,-122.3 382.88,-125.8 392.88,-129.3 392.88,-122.3"/>
</g>
</g>
</svg>
