<?xml version="1.0" encoding="UTF-8" standalone="no"?>
<!DOCTYPE svg PUBLIC "-//W3C//DTD SVG 1.1//EN"
 "http://www.w3.org/Graphics/SVG/1.1/DTD/svg11.dtd">
<!-- Generated by graphviz version 2.40.1 (20161225.0304)
 -->
<!-- Title: dependencies Pages: 1 -->
<svg width="722pt" height="284pt"
 viewBox="0.00 0.00 722.00 284.00" xmlns="http://www.w3.org/2000/svg" xmlns:xlink="http://www.w3.org/1999/xlink">
<g id="graph0" class="graph" transform="scale(1 1) rotate(0) translate(4 280)">
<title>dependencies</title>
<polygon fill="#ffffff" stroke="transparent" points="-4,4 -4,-280 718,-280 718,4 -4,4"/>
<text text-anchor="start" x="336.0091" y="-42.4" font-family="sans-serif" font-weight="bold" font-size="14.00" fill="#000000">Legend</text>
<polygon fill="#ffffb3" stroke="transparent" points="123,-10 123,-30 143,-30 143,-10 123,-10"/>
<text text-anchor="start" x="146.629" y="-15.4" font-family="sans-serif" font-size="14.00" fill="#000000"> &#160;Declarations</text>
<polygon fill="#8dd3c7" stroke="transparent" points="236,-10 236,-30 256,-30 256,-10 236,-10"/>
<text text-anchor="start" x="259.7251" y="-15.4" font-family="sans-serif" font-size="14.00" fill="#000000"> &#160;Module</text>
<polygon fill="#80b1d3" stroke="transparent" points="322,-10 322,-30 342,-30 342,-10 322,-10"/>
<text text-anchor="start" x="345.7812" y="-15.4" font-family="sans-serif" font-size="14.00" fill="#000000"> &#160;Bootstrap</text>
<polygon fill="#fdb462" stroke="transparent" points="419,-10 419,-30 439,-30 439,-10 419,-10"/>
<text text-anchor="start" x="442.6732" y="-15.4" font-family="sans-serif" font-size="14.00" fill="#000000"> &#160;Providers</text>
<polygon fill="#fb8072" stroke="transparent" points="515,-10 515,-30 535,-30 535,-10 515,-10"/>
<text text-anchor="start" x="538.7258" y="-15.4" font-family="sans-serif" font-size="14.00" fill="#000000"> &#160;Exports</text>
<g id="clust1" class="cluster">
<title>cluster_AppModule</title>
<polygon fill="none" stroke="#000000" stroke-dasharray="1,5" points="8,-70 8,-268 706,-268 706,-70 8,-70"/>
</g>
<g id="clust2" class="cluster">
<title>cluster_AppModule_declarations</title>
<polygon fill="none" stroke="#000000" points="576,-78 576,-130 698,-130 698,-78 576,-78"/>
</g>
<g id="clust4" class="cluster">
<title>cluster_AppModule_imports</title>
<polygon fill="none" stroke="#000000" points="312,-78 312,-130 568,-130 568,-78 312,-78"/>
</g>
<g id="clust6" class="cluster">
<title>cluster_AppModule_bootstrap</title>
<polygon fill="none" stroke="#000000" points="305,-208 305,-260 429,-260 429,-208 305,-208"/>
</g>
<g id="clust7" class="cluster">
<title>cluster_AppModule_providers</title>
<polygon fill="none" stroke="#000000" points="16,-78 16,-130 304,-130 304,-78 16,-78"/>
</g>
<!-- AppComponent -->
<g id="node1" class="node">
<title>AppComponent</title>
<polygon fill="#ffffb3" stroke="#000000" points="689.9399,-122 584.0601,-122 584.0601,-86 689.9399,-86 689.9399,-122"/>
<text text-anchor="middle" x="637" y="-99.8" font-family="Times,serif" font-size="14.00" fill="#000000">AppComponent</text>
</g>
<!-- AppModule -->
<g id="node2" class="node">
<title>AppModule</title>
<polygon fill="#8dd3c7" stroke="#000000" points="408.6571,-187 405.6571,-191 384.6571,-191 381.6571,-187 325.3429,-187 325.3429,-151 408.6571,-151 408.6571,-187"/>
<text text-anchor="middle" x="367" y="-164.8" font-family="Times,serif" font-size="14.00" fill="#000000">AppModule</text>
</g>
<!-- AppComponent&#45;&gt;AppModule -->
<g id="edge1" class="edge">
<title>AppComponent&#45;&gt;AppModule</title>
<path fill="none" stroke="#000000" d="M637,-122.2843C637,-143.3211 637,-175 637,-175 637,-175 418.8913,-175 418.8913,-175"/>
<polygon fill="#000000" stroke="#000000" points="418.8913,-171.5001 408.8913,-175 418.8912,-178.5001 418.8913,-171.5001"/>
</g>
<!-- AppComponent  -->
<g id="node5" class="node">
<title>AppComponent </title>
<polygon fill="#80b1d3" stroke="#000000" points="421.439,-252 312.561,-252 312.561,-216 421.439,-216 421.439,-252"/>
<text text-anchor="middle" x="367" y="-229.8" font-family="Times,serif" font-size="14.00" fill="#000000">AppComponent </text>
</g>
<!-- AppModule&#45;&gt;AppComponent  -->
<g id="edge4" class="edge">
<title>AppModule&#45;&gt;AppComponent </title>
<path fill="none" stroke="#000000" stroke-dasharray="1,5" d="M367,-187.1061C367,-187.1061 367,-205.991 367,-205.991"/>
<polygon fill="#000000" stroke="#000000" points="363.5001,-205.9909 367,-215.991 370.5001,-205.991 363.5001,-205.9909"/>
</g>
<!-- AppRoutingModule -->
<g id="node3" class="node">
<title>AppRoutingModule</title>
<polygon fill="#8dd3c7" stroke="#000000" points="560.2744,-122 557.2744,-126 536.2744,-126 533.2744,-122 431.7256,-122 431.7256,-86 560.2744,-86 560.2744,-122"/>
<text text-anchor="middle" x="496" y="-99.8" font-family="Times,serif" font-size="14.00" fill="#000000">AppRoutingModule</text>
</g>
<!-- AppRoutingModule&#45;&gt;AppModule -->
<g id="edge2" class="edge">
<title>AppRoutingModule&#45;&gt;AppModule</title>
<path fill="none" stroke="#000000" d="M496,-122.0225C496,-139.3734 496,-163 496,-163 496,-163 418.8826,-163 418.8826,-163"/>
<polygon fill="#000000" stroke="#000000" points="418.8826,-159.5001 408.8826,-163 418.8826,-166.5001 418.8826,-159.5001"/>
</g>
<!-- HomeModule -->
<g id="node4" class="node">
<title>HomeModule</title>
<polygon fill="#8dd3c7" stroke="#000000" points="413.7619,-122 410.7619,-126 389.7619,-126 386.7619,-122 320.2381,-122 320.2381,-86 413.7619,-86 413.7619,-122"/>
<text text-anchor="middle" x="367" y="-99.8" font-family="Times,serif" font-size="14.00" fill="#000000">HomeModule</text>
</g>
<!-- HomeModule&#45;&gt;AppModule -->
<g id="edge3" class="edge">
<title>HomeModule&#45;&gt;AppModule</title>
<path fill="none" stroke="#000000" d="M367,-122.1061C367,-122.1061 367,-140.991 367,-140.991"/>
<polygon fill="#000000" stroke="#000000" points="363.5001,-140.9909 367,-150.991 370.5001,-140.991 363.5001,-140.9909"/>
</g>
<!-- NoopInterceptor -->
<g id="node6" class="node">
<title>NoopInterceptor</title>
<ellipse fill="#fdb462" stroke="#000000" cx="221" cy="-104" rx="74.7014" ry="18"/>
<text text-anchor="middle" x="221" y="-99.8" font-family="Times,serif" font-size="14.00" fill="#000000">NoopInterceptor</text>
</g>
<!-- NoopInterceptor&#45;&gt;AppModule -->
<g id="edge5" class="edge">
<title>NoopInterceptor&#45;&gt;AppModule</title>
<path fill="none" stroke="#000000" d="M221,-122.0225C221,-139.3734 221,-163 221,-163 221,-163 315.1623,-163 315.1623,-163"/>
<polygon fill="#000000" stroke="#000000" points="315.1623,-166.5001 325.1623,-163 315.1622,-159.5001 315.1623,-166.5001"/>
</g>
<!-- TodoStore -->
<g id="node7" class="node">
<title>TodoStore</title>
<ellipse fill="#fdb462" stroke="#000000" cx="76" cy="-104" rx="51.6073" ry="18"/>
<text text-anchor="middle" x="76" y="-99.8" font-family="Times,serif" font-size="14.00" fill="#000000">TodoStore</text>
</g>
<!-- TodoStore&#45;&gt;AppModule -->
<g id="edge6" class="edge">
<title>TodoStore&#45;&gt;AppModule</title>
<path fill="none" stroke="#000000" d="M76,-122.2843C76,-143.3211 76,-175 76,-175 76,-175 315.3068,-175 315.3068,-175"/>
<polygon fill="#000000" stroke="#000000" points="315.3068,-178.5001 325.3068,-175 315.3068,-171.5001 315.3068,-178.5001"/>
</g>
</g>
</svg>
