<?xml version="1.0" encoding="UTF-8" standalone="no"?>
<!DOCTYPE svg PUBLIC "-//W3C//DTD SVG 1.1//EN"
 "http://www.w3.org/Graphics/SVG/1.1/DTD/svg11.dtd">
<!-- Generated by graphviz version 2.47.0 (20210316.0004)
 -->
<!-- Title: dependencies Pages: 1 -->
<svg width="504pt" height="284pt"
 viewBox="0.00 0.00 504.00 284.00" xmlns="http://www.w3.org/2000/svg" xmlns:xlink="http://www.w3.org/1999/xlink">
<g id="graph0" class="graph" transform="scale(1 1) rotate(0) translate(4 280)">
<title>dependencies</title>
<polygon fill="white" stroke="transparent" points="-4,4 -4,-280 500,-280 500,4 -4,4"/>
<text text-anchor="start" x="227.01" y="-42.4" font-family="Times-12" font-weight="bold" font-size="14.00">Legend</text>
<polygon fill="#ffffb3" stroke="transparent" points="14,-10 14,-30 34,-30 34,-10 14,-10"/>
<text text-anchor="start" x="37.63" y="-15.4" font-family="Times-12" font-size="14.00"> &#160;Declarations</text>
<polygon fill="#8dd3c7" stroke="transparent" points="127,-10 127,-30 147,-30 147,-10 127,-10"/>
<text text-anchor="start" x="150.73" y="-15.4" font-family="Times-12" font-size="14.00"> &#160;Module</text>
<polygon fill="#80b1d3" stroke="transparent" points="213,-10 213,-30 233,-30 233,-10 213,-10"/>
<text text-anchor="start" x="236.78" y="-15.4" font-family="Times-12" font-size="14.00"> &#160;Bootstrap</text>
<polygon fill="#fdb462" stroke="transparent" points="310,-10 310,-30 330,-30 330,-10 310,-10"/>
<text text-anchor="start" x="333.67" y="-15.4" font-family="Times-12" font-size="14.00"> &#160;Providers</text>
<polygon fill="#fb8072" stroke="transparent" points="406,-10 406,-30 426,-30 426,-10 406,-10"/>
<text text-anchor="start" x="429.73" y="-15.4" font-family="Times-12" font-size="14.00"> &#160;Exports</text>
<g id="clust1" class="cluster">
<title>cluster_ListModule</title>
<polygon fill="none" stroke="black" stroke-dasharray="1,5" points="113,-70 113,-268 383,-268 383,-70 113,-70"/>
</g>
<g id="clust4" class="cluster">
<title>cluster_ListModule_imports</title>
<polygon fill="none" stroke="black" points="249,-78 249,-130 375,-130 375,-78 249,-78"/>
</g>
<g id="clust5" class="cluster">
<title>cluster_ListModule_exports</title>
<polygon fill="none" stroke="black" points="186,-208 186,-260 308,-260 308,-208 186,-208"/>
</g>
<g id="clust2" class="cluster">
<title>cluster_ListModule_declarations</title>
<polygon fill="none" stroke="black" points="121,-78 121,-130 241,-130 241,-78 121,-78"/>
</g>
<!-- ListComponent -->
<g id="node1" class="node">
<title>ListComponent</title>
<polygon fill="#ffffb3" stroke="black" points="232.61,-122 129.39,-122 129.39,-86 232.61,-86 232.61,-122"/>
<text text-anchor="middle" x="181" y="-99.8" font-family="Times,serif" font-size="14.00">ListComponent</text>
</g>
<!-- ListModule -->
<g id="node2" class="node">
<title>ListModule</title>
<polygon fill="#8dd3c7" stroke="black" points="287.83,-187 284.83,-191 263.83,-191 260.83,-187 206.17,-187 206.17,-151 287.83,-151 287.83,-187"/>
<text text-anchor="middle" x="247" y="-164.8" font-family="Times,serif" font-size="14.00">ListModule</text>
</g>
<!-- ListComponent&#45;&gt;ListModule -->
<g id="edge1" class="edge">
<title>ListComponent&#45;&gt;ListModule</title>
<path fill="none" stroke="black" d="M219.45,-122.11C219.45,-122.11 219.45,-140.99 219.45,-140.99"/>
<polygon fill="black" stroke="black" points="215.95,-140.99 219.45,-150.99 222.95,-140.99 215.95,-140.99"/>
</g>
<!-- ListComponent  -->
<g id="node4" class="node">
<title>ListComponent </title>
<polygon fill="#fb8072" stroke="black" points="300.11,-252 193.89,-252 193.89,-216 300.11,-216 300.11,-252"/>
<text text-anchor="middle" x="247" y="-229.8" font-family="Times,serif" font-size="14.00">ListComponent </text>
</g>
<!-- ListModule&#45;&gt;ListComponent  -->
<g id="edge3" class="edge">
<title>ListModule&#45;&gt;ListComponent </title>
<path fill="none" stroke="black" stroke-dasharray="5,2" d="M247,-187.11C247,-187.11 247,-205.99 247,-205.99"/>
<polygon fill="black" stroke="black" points="243.5,-205.99 247,-215.99 250.5,-205.99 243.5,-205.99"/>
</g>
<!-- TodoComponent -->
<g id="node3" class="node">
<title>TodoComponent</title>
<polygon fill="#8dd3c7" stroke="black" points="367.39,-122 364.39,-126 343.39,-126 340.39,-122 256.61,-122 256.61,-86 367.39,-86 367.39,-122"/>
<text text-anchor="middle" x="312" y="-99.8" font-family="Times,serif" font-size="14.00">TodoComponent</text>
</g>
<!-- TodoComponent&#45;&gt;ListModule -->
<g id="edge2" class="edge">
<title>TodoComponent&#45;&gt;ListModule</title>
<path fill="none" stroke="black" d="M272.11,-122.11C272.11,-122.11 272.11,-140.99 272.11,-140.99"/>
<polygon fill="black" stroke="black" points="268.61,-140.99 272.11,-150.99 275.61,-140.99 268.61,-140.99"/>
</g>
</g>
</svg>
