<?xml version="1.0" encoding="UTF-8" standalone="no"?>
<!DOCTYPE svg PUBLIC "-//W3C//DTD SVG 1.1//EN"
 "http://www.w3.org/Graphics/SVG/1.1/DTD/svg11.dtd">
<!-- Generated by graphviz version 2.40.1 (20161225.0304)
 -->
<!-- Title: dependencies Pages: 1 -->
<svg width="504pt" height="284pt"
 viewBox="0.00 0.00 504.00 284.00" xmlns="http://www.w3.org/2000/svg" xmlns:xlink="http://www.w3.org/1999/xlink">
<g id="graph0" class="graph" transform="scale(1 1) rotate(0) translate(4 280)">
<title>dependencies</title>
<polygon fill="#ffffff" stroke="transparent" points="-4,4 -4,-280 500,-280 500,4 -4,4"/>
<text text-anchor="start" x="227.0091" y="-42.4" font-family="sans-serif" font-weight="bold" font-size="14.00" fill="#000000">Legend</text>
<polygon fill="#ffffb3" stroke="transparent" points="14,-10 14,-30 34,-30 34,-10 14,-10"/>
<text text-anchor="start" x="37.629" y="-15.4" font-family="sans-serif" font-size="14.00" fill="#000000"> &#160;Declarations</text>
<polygon fill="#8dd3c7" stroke="transparent" points="127,-10 127,-30 147,-30 147,-10 127,-10"/>
<text text-anchor="start" x="150.7251" y="-15.4" font-family="sans-serif" font-size="14.00" fill="#000000"> &#160;Module</text>
<polygon fill="#80b1d3" stroke="transparent" points="213,-10 213,-30 233,-30 233,-10 213,-10"/>
<text text-anchor="start" x="236.7812" y="-15.4" font-family="sans-serif" font-size="14.00" fill="#000000"> &#160;Bootstrap</text>
<polygon fill="#fdb462" stroke="transparent" points="310,-10 310,-30 330,-30 330,-10 310,-10"/>
<text text-anchor="start" x="333.6732" y="-15.4" font-family="sans-serif" font-size="14.00" fill="#000000"> &#160;Providers</text>
<polygon fill="#fb8072" stroke="transparent" points="406,-10 406,-30 426,-30 426,-10 406,-10"/>
<text text-anchor="start" x="429.7258" y="-15.4" font-family="sans-serif" font-size="14.00" fill="#000000"> &#160;Exports</text>
<g id="clust1" class="cluster">
<title>cluster_TodoModule</title>
<polygon fill="none" stroke="#000000" stroke-dasharray="1,5" points="42.5,-70 42.5,-268 453.5,-268 453.5,-70 42.5,-70"/>
</g>
<g id="clust2" class="cluster">
<title>cluster_TodoModule_declarations</title>
<polygon fill="none" stroke="#000000" points="50.5,-78 50.5,-130 445.5,-130 445.5,-78 50.5,-78"/>
</g>
<g id="clust7" class="cluster">
<title>cluster_TodoModule_exports</title>
<polygon fill="none" stroke="#000000" points="172.5,-208 172.5,-260 302.5,-260 302.5,-208 172.5,-208"/>
</g>
<!-- DoNothingDirective -->
<g id="node1" class="node">
<title>DoNothingDirective</title>
<polygon fill="#ffffb3" stroke="#000000" points="437.0772,-122 305.9228,-122 305.9228,-86 437.0772,-86 437.0772,-122"/>
<text text-anchor="middle" x="371.5" y="-99.8" font-family="Times,serif" font-size="14.00" fill="#000000">DoNothingDirective</text>
</g>
<!-- TodoModule -->
<g id="node4" class="node">
<title>TodoModule</title>
<polygon fill="#8dd3c7" stroke="#000000" points="282.1025,-187 279.1025,-191 258.1025,-191 255.1025,-187 192.8975,-187 192.8975,-151 282.1025,-151 282.1025,-187"/>
<text text-anchor="middle" x="237.5" y="-164.8" font-family="Times,serif" font-size="14.00" fill="#000000">TodoModule</text>
</g>
<!-- DoNothingDirective&#45;&gt;TodoModule -->
<g id="edge1" class="edge">
<title>DoNothingDirective&#45;&gt;TodoModule</title>
<path fill="none" stroke="#000000" d="M371.5,-122.1061C371.5,-141.3391 371.5,-169 371.5,-169 371.5,-169 292.1201,-169 292.1201,-169"/>
<polygon fill="#000000" stroke="#000000" points="292.1201,-165.5001 282.1201,-169 292.12,-172.5001 292.1201,-165.5001"/>
</g>
<!-- FirstUpperPipe -->
<g id="node2" class="node">
<title>FirstUpperPipe</title>
<polygon fill="#ffffb3" stroke="#000000" points="288.0396,-122 186.9604,-122 186.9604,-86 288.0396,-86 288.0396,-122"/>
<text text-anchor="middle" x="237.5" y="-99.8" font-family="Times,serif" font-size="14.00" fill="#000000">FirstUpperPipe</text>
</g>
<!-- FirstUpperPipe&#45;&gt;TodoModule -->
<g id="edge2" class="edge">
<title>FirstUpperPipe&#45;&gt;TodoModule</title>
<path fill="none" stroke="#000000" d="M237.5,-122.1061C237.5,-122.1061 237.5,-140.991 237.5,-140.991"/>
<polygon fill="#000000" stroke="#000000" points="234.0001,-140.9909 237.5,-150.991 241.0001,-140.991 234.0001,-140.9909"/>
</g>
<!-- TodoComponent -->
<g id="node3" class="node">
<title>TodoComponent</title>
<polygon fill="#ffffb3" stroke="#000000" points="168.8851,-122 58.1149,-122 58.1149,-86 168.8851,-86 168.8851,-122"/>
<text text-anchor="middle" x="113.5" y="-99.8" font-family="Times,serif" font-size="14.00" fill="#000000">TodoComponent</text>
</g>
<!-- TodoComponent&#45;&gt;TodoModule -->
<g id="edge3" class="edge">
<title>TodoComponent&#45;&gt;TodoModule</title>
<path fill="none" stroke="#000000" d="M113.5,-122.1061C113.5,-141.3391 113.5,-169 113.5,-169 113.5,-169 182.7332,-169 182.7332,-169"/>
<polygon fill="#000000" stroke="#000000" points="182.7332,-172.5001 192.7332,-169 182.7331,-165.5001 182.7332,-172.5001"/>
</g>
<!-- TodoComponent  -->
<g id="node5" class="node">
<title>TodoComponent </title>
<polygon fill="#fb8072" stroke="#000000" points="294.8857,-252 180.1143,-252 180.1143,-216 294.8857,-216 294.8857,-252"/>
<text text-anchor="middle" x="237.5" y="-229.8" font-family="Times,serif" font-size="14.00" fill="#000000">TodoComponent </text>
</g>
<!-- TodoModule&#45;&gt;TodoComponent  -->
<g id="edge4" class="edge">
<title>TodoModule&#45;&gt;TodoComponent </title>
<path fill="none" stroke="#000000" stroke-dasharray="5,2" d="M237.5,-187.1061C237.5,-187.1061 237.5,-205.991 237.5,-205.991"/>
<polygon fill="#000000" stroke="#000000" points="234.0001,-205.9909 237.5,-215.991 241.0001,-205.991 234.0001,-205.9909"/>
</g>
</g>
</svg>
