<?xml version="1.0" encoding="UTF-8" standalone="no"?>
<!DOCTYPE svg PUBLIC "-//W3C//DTD SVG 1.1//EN"
 "http://www.w3.org/Graphics/SVG/1.1/DTD/svg11.dtd">
<!-- Generated by graphviz version 2.47.3 (20210619.1520)
 -->
<!-- Title: dependencies Pages: 1 -->
<svg width="435pt" height="247pt"
 viewBox="0.00 0.00 435.00 246.80" xmlns="http://www.w3.org/2000/svg" xmlns:xlink="http://www.w3.org/1999/xlink">
<g id="graph0" class="graph" transform="scale(1 1) rotate(0) translate(4 242.8)">
<title>dependencies</title>
<polygon fill="white" stroke="transparent" points="-4,4 -4,-242.8 431,-242.8 431,4 -4,4"/>
<text text-anchor="middle" x="213.5" y="-8.2" font-family="sans-serif" font-size="14.00">dependencies</text>
<g id="clust1" class="cluster">
<title>cluster_TodoModule</title>
<polygon fill="none" stroke="black" stroke-dasharray="1,5" points="8,-32.8 8,-230.8 419,-230.8 419,-32.8 8,-32.8"/>
</g>
<g id="clust2" class="cluster">
<title>cluster_TodoModule_declarations</title>
<polygon fill="none" stroke="black" points="16,-40.8 16,-92.8 411,-92.8 411,-40.8 16,-40.8"/>
</g>
<g id="clust7" class="cluster">
<title>cluster_TodoModule_exports</title>
<polygon fill="none" stroke="black" points="138,-170.8 138,-222.8 268,-222.8 268,-170.8 138,-170.8"/>
</g>
<!-- DoNothingDirective -->
<g id="node1" class="node">
<title>DoNothingDirective</title>
<polygon fill="#ffffb3" stroke="black" points="402.58,-84.8 271.42,-84.8 271.42,-48.8 402.58,-48.8 402.58,-84.8"/>
<text text-anchor="middle" x="337" y="-62.6" font-family="Times,serif" font-size="14.00">DoNothingDirective</text>
</g>
<!-- TodoModule -->
<g id="node4" class="node">
<title>TodoModule</title>
<polygon fill="#8dd3c7" stroke="black" points="247.6,-149.8 244.6,-153.8 223.6,-153.8 220.6,-149.8 158.4,-149.8 158.4,-113.8 247.6,-113.8 247.6,-149.8"/>
<text text-anchor="middle" x="203" y="-127.6" font-family="Times,serif" font-size="14.00">TodoModule</text>
</g>
<!-- DoNothingDirective&#45;&gt;TodoModule -->
<g id="edge1" class="edge">
<title>DoNothingDirective&#45;&gt;TodoModule</title>
<path fill="none" stroke="black" d="M337,-84.91C337,-104.14 337,-131.8 337,-131.8 337,-131.8 257.62,-131.8 257.62,-131.8"/>
<polygon fill="black" stroke="black" points="257.62,-128.3 247.62,-131.8 257.62,-135.3 257.62,-128.3"/>
</g>
<!-- FirstUpperPipe -->
<g id="node2" class="node">
<title>FirstUpperPipe</title>
<polygon fill="#ffffb3" stroke="black" points="253.54,-84.8 152.46,-84.8 152.46,-48.8 253.54,-48.8 253.54,-84.8"/>
<text text-anchor="middle" x="203" y="-62.6" font-family="Times,serif" font-size="14.00">FirstUpperPipe</text>
</g>
<!-- FirstUpperPipe&#45;&gt;TodoModule -->
<g id="edge2" class="edge">
<title>FirstUpperPipe&#45;&gt;TodoModule</title>
<path fill="none" stroke="black" d="M203,-84.91C203,-84.91 203,-103.79 203,-103.79"/>
<polygon fill="black" stroke="black" points="199.5,-103.79 203,-113.79 206.5,-103.79 199.5,-103.79"/>
</g>
<!-- TodoComponent -->
<g id="node3" class="node">
<title>TodoComponent</title>
<polygon fill="#ffffb3" stroke="black" points="134.39,-84.8 23.61,-84.8 23.61,-48.8 134.39,-48.8 134.39,-84.8"/>
<text text-anchor="middle" x="79" y="-62.6" font-family="Times,serif" font-size="14.00">TodoComponent</text>
</g>
<!-- TodoComponent&#45;&gt;TodoModule -->
<g id="edge3" class="edge">
<title>TodoComponent&#45;&gt;TodoModule</title>
<path fill="none" stroke="black" d="M79,-84.91C79,-104.14 79,-131.8 79,-131.8 79,-131.8 148.23,-131.8 148.23,-131.8"/>
<polygon fill="black" stroke="black" points="148.23,-135.3 158.23,-131.8 148.23,-128.3 148.23,-135.3"/>
</g>
<!-- TodoComponent  -->
<g id="node5" class="node">
<title>TodoComponent </title>
<polygon fill="#fb8072" stroke="black" points="260.39,-214.8 145.61,-214.8 145.61,-178.8 260.39,-178.8 260.39,-214.8"/>
<text text-anchor="middle" x="203" y="-192.6" font-family="Times,serif" font-size="14.00">TodoComponent </text>
</g>
<!-- TodoModule&#45;&gt;TodoComponent  -->
<g id="edge4" class="edge">
<title>TodoModule&#45;&gt;TodoComponent </title>
<path fill="none" stroke="black" stroke-dasharray="5,2" d="M203,-149.91C203,-149.91 203,-168.79 203,-168.79"/>
<polygon fill="black" stroke="black" points="199.5,-168.79 203,-178.79 206.5,-168.79 199.5,-168.79"/>
</g>
</g>
</svg>
